name rise49.5252peak65.1548fall88.8305.mot
datacolumns 19
datarows 20
range 14.37993900000000 14.41160800000000
endheader
time	ground_force1_vx	ground_force1_vy	ground_force1_vz	ground_force1_px	ground_force1_py	ground_force1_pz	ground_force2_vx	ground_force2_vy	ground_force2_vz	ground_force2_px	ground_force2_py	ground_force2_pz	ground_torque1_x	ground_torque1_y	ground_torque1_z	ground_torque2_x	ground_torque2_y	ground_torque2_z	
14.37993900000000	-9.29330500000000	41.87010900000000	-12.51936400000000	0.36617900000000	0.00000000000000	0.08845200000000	-53.26615600000000	768.10198200000002	-54.11996800000000	0.17579700000000	0.00000000000000	-0.10743400000000	0.00000000000000	-9.34789500000000	0.00000000000000	0.00000000000000	-28.12219600000000	0.00000000000000	
14.38161000000000	-10.14643700000000	48.95365200000000	-14.07376200000000	0.36867200000000	0.00000000000000	0.08991100000000	-53.92962100000000	765.53179699999998	-53.68989200000000	0.17481200000000	0.00000000000000	-0.10730200000000	0.00000000000000	-10.57858700000000	0.00000000000000	0.00000000000000	-28.04449900000000	0.00000000000000	
14.38327600000000	-10.81350600000000	56.09709200000000	-15.48530700000000	0.37111300000000	0.00000000000000	0.09124000000000	-54.61025400000000	762.88543700000002	-53.25017500000000	0.17381900000000	0.00000000000000	-0.10716800000000	0.00000000000000	-11.72236100000000	0.00000000000000	0.00000000000000	-27.96928100000000	0.00000000000000	
14.38493900000000	-11.26999400000000	63.20702300000000	-16.72114000000000	0.37351100000000	0.00000000000000	0.09245600000000	-55.30752100000000	760.15985899999998	-52.80059700000000	0.17281800000000	0.00000000000000	-0.10703100000000	0.00000000000000	-12.75453300000000	0.00000000000000	0.00000000000000	-27.89642700000000	0.00000000000000	
14.38660600000000	-11.50212600000000	70.21399300000000	-17.75961600000000	0.37587100000000	0.00000000000000	0.09357400000000	-56.02078800000000	757.35186999999996	-52.34092600000000	0.17181200000000	0.00000000000000	-0.10689100000000	0.00000000000000	-13.65818600000000	0.00000000000000	0.00000000000000	-27.82579800000000	0.00000000000000	
14.38827800000000	-11.50663600000000	77.07454400000000	-18.59043600000000	0.37819700000000	0.00000000000000	0.09460800000000	-56.74932800000000	754.45813699999997	-51.87092100000000	0.17080100000000	0.00000000000000	-0.10674800000000	0.00000000000000	-14.42439400000000	0.00000000000000	0.00000000000000	-27.75723000000000	0.00000000000000	
14.38993700000000	-11.28970300000000	83.77076599999999	-19.21383000000000	0.38049200000000	0.00000000000000	0.09556800000000	-57.49231400000000	751.47520099999997	-51.39033300000000	0.16978700000000	0.00000000000000	-0.10660300000000	0.00000000000000	-15.05176100000000	0.00000000000000	0.00000000000000	-27.69053700000000	0.00000000000000	
14.39160900000000	-10.86531100000000	90.30783300000000	-19.63901700000000	0.38275700000000	0.00000000000000	0.09646200000000	-58.24882100000000	748.39948000000004	-50.89890500000000	0.16877000000000	0.00000000000000	-0.10645400000000	0.00000000000000	-15.54541800000000	0.00000000000000	0.00000000000000	-27.62551100000000	0.00000000000000	
14.39327200000000	-10.25323200000000	96.71004300000000	-19.88219100000000	0.38499600000000	0.00000000000000	0.09729800000000	-59.01782500000000	745.22728600000005	-50.39638200000000	0.16775300000000	0.00000000000000	-0.10630300000000	0.00000000000000	-15.91566300000000	0.00000000000000	0.00000000000000	-27.56192000000000	0.00000000000000	
14.39495400000000	-9.47689000000000	103.01599000000000	-19.96428800000000	0.38720800000000	0.00000000000000	0.09808200000000	-59.79820300000000	741.95483200000001	-49.88250700000000	0.16673600000000	0.00000000000000	-0.10614900000000	0.00000000000000	-16.17640200000000	0.00000000000000	0.00000000000000	-27.49951200000000	0.00000000000000	
14.39660800000000	-8.56128900000000	109.27337799999999	-19.90874600000000	0.38939400000000	0.00000000000000	0.09881900000000	-60.58873400000000	738.57825000000003	-49.35702700000000	0.16572100000000	0.00000000000000	-0.10599100000000	0.00000000000000	-16.34356300000000	0.00000000000000	0.00000000000000	-27.43801200000000	0.00000000000000	
14.39826900000000	-7.53117300000000	115.53399500000000	-19.73946000000000	0.39155500000000	0.00000000000000	0.09951400000000	-61.38809900000000	735.09360000000004	-48.81969600000000	0.16470900000000	0.00000000000000	-0.10583100000000	0.00000000000000	-16.43361900000000	0.00000000000000	0.00000000000000	-27.37712600000000	0.00000000000000	
14.39993600000000	-6.40950400000000	121.84919900000000	-19.47903900000000	0.39369000000000	0.00000000000000	0.10017000000000	-62.19488200000000	731.49688700000002	-48.27027500000000	0.16370200000000	0.00000000000000	-0.10566700000000	0.00000000000000	-16.46230400000000	0.00000000000000	0.00000000000000	-27.31654100000000	0.00000000000000	
14.40160900000000	-5.21635300000000	128.26618900000000	-19.14746800000000	0.39579900000000	0.00000000000000	0.10079300000000	-63.00757000000000	727.78407600000003	-47.70854100000000	0.16270100000000	0.00000000000000	-0.10550000000000	0.00000000000000	-16.44361600000000	0.00000000000000	0.00000000000000	-27.25592500000000	0.00000000000000	
14.40326900000000	-3.96818500000000	134.82521100000000	-18.76120100000000	0.39788100000000	0.00000000000000	0.10138300000000	-63.82455900000000	723.95110699999998	-47.13428400000000	0.16170600000000	0.00000000000000	-0.10532900000000	0.00000000000000	-16.38910400000000	0.00000000000000	0.00000000000000	-27.19492600000000	0.00000000000000	
14.40495200000000	-2.67755300000000	141.55775100000000	-18.33267500000000	0.39993700000000	0.00000000000000	0.10194500000000	-64.64415099999999	719.99391300000002	-46.54731000000000	0.16072100000000	0.00000000000000	-0.10515500000000	0.00000000000000	-16.30747200000000	0.00000000000000	0.00000000000000	-27.13317800000000	0.00000000000000	
14.40661000000000	-1.35312400000000	148.48566700000001	-17.87021600000000	0.40196400000000	0.00000000000000	0.10248000000000	-65.46455899999999	715.90844000000004	-45.94745100000000	0.15974500000000	0.00000000000000	-0.10497800000000	0.00000000000000	-16.20446000000000	0.00000000000000	0.00000000000000	-27.07029700000000	0.00000000000000	
14.40827000000000	0.00000300000000	155.62116000000000	-17.37826900000000	0.40396200000000	0.00000000000000	0.10299000000000	-66.28390899999999	711.69066099999998	-45.33455700000000	0.15878000000000	0.00000000000000	-0.10479700000000	0.00000000000000	-16.08297000000000	0.00000000000000	0.00000000000000	-27.00588600000000	0.00000000000000	
14.40994100000000	1.37977500000000	162.96743100000000	-16.85786500000000	0.40593000000000	0.00000000000000	0.10347700000000	-67.10024700000000	707.33660199999997	-44.70850900000000	0.15782800000000	0.00000000000000	-0.10461300000000	0.00000000000000	-15.94337500000000	0.00000000000000	0.00000000000000	-26.93953300000000	0.00000000000000	
14.41160800000000	2.78653900000000	170.51984700000000	-16.30727500000000	0.40786700000000	0.00000000000000	0.10394300000000	-67.91153600000000	702.84235799999999	-44.06921100000000	0.15688900000000	0.00000000000000	-0.10442500000000	0.00000000000000	-15.78396600000000	0.00000000000000	0.00000000000000	-26.87081300000000	0.00000000000000	
